<svg width="50" height="50" viewBox="0 0 50 50" fill="none" xmlns="http://www.w3.org/2000/svg">
<g clip-path="url(#clip0_221_107)">
<path d="M25.4395 0.369141C11.9079 0.369141 0.939453 11.3376 0.939453 24.8691C0.939453 38.4007 11.9079 49.3691 25.4395 49.3691C38.971 49.3691 49.9395 38.4007 49.9395 24.8691C49.9395 11.3376 38.971 0.369141 25.4395 0.369141ZM25.4395 45.541C14.0224 45.541 4.76758 36.2862 4.76758 24.8691C4.76758 13.452 14.0224 4.19727 25.4395 4.19727C36.8565 4.19727 46.1113 13.452 46.1113 24.8691C46.1113 36.2862 36.8565 45.541 25.4395 45.541Z" fill="white"/>
<path fill-rule="evenodd" clip-rule="evenodd" d="M31.2534 21.1187H26.9917V18.0084C26.9917 17.0543 27.9786 16.833 28.4392 16.833C28.8967 16.833 31.1922 16.833 31.1922 16.833V12.6356L28.0369 12.6191C23.7318 12.6191 22.7493 15.7489 22.7493 17.7557V21.1188H19.6255V25.4434H22.7493C22.7493 30.9957 22.7493 37.1191 22.7493 37.1191H26.9917C26.9917 37.1191 26.9917 30.9328 26.9917 25.4434H30.5955L31.2534 21.1187Z" fill="white"/>
</g>
<defs>
<clipPath id="clip0_221_107">
<rect width="49" height="49" fill="white" transform="translate(0.939453 0.369141)"/>
</clipPath>
</defs>
</svg>
