<svg width="50" height="50" viewBox="0 0 50 50" fill="none" xmlns="http://www.w3.org/2000/svg">
<path fill-rule="evenodd" clip-rule="evenodd" d="M25.4395 37.1191C32.2049 37.1191 37.6895 31.6346 37.6895 24.8691C37.6895 18.1036 32.2049 12.6191 25.4395 12.6191C18.674 12.6191 13.1895 18.1036 13.1895 24.8691C13.1895 31.6346 18.674 37.1191 25.4395 37.1191ZM25.4395 33.0358C29.9497 33.0358 33.6061 29.3794 33.6061 24.8691C33.6061 20.3588 29.9497 16.7025 25.4395 16.7025C20.9291 16.7025 17.2728 20.3588 17.2728 24.8691C17.2728 29.3794 20.9291 33.0358 25.4395 33.0358Z" fill="white"/>
<path d="M37.6896 10.5771C36.562 10.5771 35.6479 11.4912 35.6479 12.6188C35.6479 13.7464 36.562 14.6605 37.6896 14.6605C38.8172 14.6605 39.7313 13.7464 39.7313 12.6188C39.7313 11.4912 38.8172 10.5771 37.6896 10.5771Z" fill="white"/>
<path fill-rule="evenodd" clip-rule="evenodd" d="M4.31613 9.09976C2.98096 11.7202 2.98096 15.1505 2.98096 22.0111V27.7278C2.98096 34.5884 2.98096 38.0188 4.31613 40.6391C5.49057 42.9441 7.36458 44.8182 9.66958 45.9926C12.29 47.3278 15.7203 47.3278 22.581 47.3278H28.2976C35.1582 47.3278 38.5886 47.3278 41.2089 45.9926C43.514 44.8182 45.388 42.9441 46.5624 40.6391C47.8976 38.0188 47.8976 34.5884 47.8976 27.7278V22.0111C47.8976 15.1505 47.8976 11.7202 46.5624 9.09976C45.388 6.79475 43.514 4.92075 41.2089 3.7463C38.5886 2.41113 35.1582 2.41113 28.2976 2.41113H22.581C15.7203 2.41113 12.29 2.41113 9.66958 3.7463C7.36458 4.92075 5.49057 6.79475 4.31613 9.09976ZM28.2976 6.49447H22.581C19.0833 6.49447 16.7056 6.49765 14.8677 6.6478C13.0775 6.79406 12.162 7.05917 11.5234 7.38457C9.98671 8.16755 8.73738 9.41689 7.9544 10.9535C7.629 11.5922 7.36388 12.5077 7.21762 14.2979C7.06748 16.1357 7.06429 18.5134 7.06429 22.0111V27.7278C7.06429 31.2256 7.06748 33.6031 7.21762 35.441C7.36388 37.2313 7.629 38.1468 7.9544 38.7855C8.73738 40.322 9.98671 41.5713 11.5234 42.3543C12.162 42.6797 13.0775 42.945 14.8677 43.0911C16.7056 43.2412 19.0833 43.2445 22.581 43.2445H28.2976C31.7954 43.2445 34.1729 43.2412 36.0108 43.0911C37.8012 42.945 38.7167 42.6797 39.3553 42.3543C40.8918 41.5713 42.1411 40.322 42.9241 38.7855C43.2496 38.1468 43.5148 37.2313 43.661 35.441C43.811 33.6031 43.8143 31.2256 43.8143 27.7278V22.0111C43.8143 18.5134 43.811 16.1357 43.661 14.2979C43.5148 12.5077 43.2496 11.5922 42.9241 10.9535C42.1411 9.41689 40.8918 8.16755 39.3553 7.38457C38.7167 7.05917 37.8012 6.79406 36.0108 6.6478C34.1729 6.49765 31.7954 6.49447 28.2976 6.49447Z" fill="white"/>
</svg>
