<svg width="50" height="50" viewBox="0 0 50 50" fill="none" xmlns="http://www.w3.org/2000/svg">
<g clip-path="url(#clip0_221_110)">
<path d="M47.9824 38.0057C47.0867 40.0193 44.776 41.843 42.6062 42.2458C42.3842 42.2871 37.0815 43.2441 25.4547 43.2441H25.4241C13.7988 43.2441 8.49151 42.2871 8.27101 42.2473C6.10123 41.843 3.78904 40.0193 2.89173 38.0042C2.81211 37.825 0.940918 33.5161 0.940918 24.8691C0.940918 16.2222 2.81211 11.9117 2.89173 11.7325C3.78904 9.71742 6.10123 7.89523 8.27101 7.49252C8.49151 7.45117 13.7988 6.49414 25.4241 6.49414C37.0815 6.49414 42.3842 7.45117 42.6047 7.49098C44.776 7.89523 47.0867 9.71742 47.984 11.731C48.0636 11.9117 49.9394 16.2222 49.9394 24.8691C49.9394 33.5161 48.0636 37.825 47.9824 38.0057ZM45.1818 12.9713C44.704 11.8979 43.2065 10.7189 42.0458 10.503C41.9968 10.4938 36.7492 9.55664 25.4547 9.55664C14.1311 9.55664 8.87892 10.4938 8.82839 10.503C7.6677 10.7189 6.17167 11.8979 5.69239 12.9775C5.67707 13.0096 4.00495 16.951 4.00495 24.8691C4.00495 32.7857 5.67707 36.7271 5.69545 36.767C6.17167 37.8404 7.6677 39.0194 8.82992 39.2353C8.87892 39.2445 14.1311 40.1816 25.4241 40.1816H25.4547C36.7492 40.1816 41.9968 39.2445 42.0473 39.2353C43.208 39.0194 44.704 37.8404 45.1833 36.7608C45.1986 36.7271 46.8738 32.7857 46.8738 24.8691C46.8738 16.9526 45.1986 13.0096 45.1818 12.9713ZM21.674 33.8208C21.426 33.9785 21.1412 34.0566 20.8579 34.0566C20.6037 34.0566 20.3495 33.9939 20.1183 33.8652C19.6298 33.5957 19.3266 33.0828 19.3266 32.5254V17.2129C19.3266 16.657 19.6268 16.1456 20.1122 15.8761C20.5976 15.6051 21.1932 15.6173 21.6633 15.9098L33.9424 23.4987C34.3911 23.7758 34.6667 24.2658 34.6682 24.7941C34.6698 25.3224 34.4003 25.8155 33.9531 26.0957L21.674 33.8208ZM22.3907 19.96V29.7523L30.2429 24.8125L22.3907 19.96Z" fill="white"/>
</g>
<defs>
<clipPath id="clip0_221_110">
<rect width="49" height="49" fill="white" transform="translate(0.939453 0.369141)"/>
</clipPath>
</defs>
</svg>
