<svg width="51" height="51" viewBox="0 0 51 51" fill="none" xmlns="http://www.w3.org/2000/svg">
<path d="M11.9395 4.86914C8.07345 4.86914 4.93945 8.00314 4.93945 11.8691V39.8691C4.93945 43.7351 8.07345 46.8691 11.9395 46.8691H39.9395C43.8055 46.8691 46.9395 43.7351 46.9395 39.8691V11.8691C46.9395 8.00314 43.8055 4.86914 39.9395 4.86914H11.9395ZM14.0254 13.8691H21.9629L27.5996 21.8789L34.4395 13.8691H36.9395L28.7285 23.4824L38.8535 37.8691H30.918L24.377 28.5762L16.4395 37.8691H13.9395L23.248 26.9727L14.0254 13.8691ZM17.8535 15.8691L31.9609 35.8691H35.0254L20.918 15.8691H17.8535Z" fill="white"/>
</svg>
