<svg width="188" height="35" viewBox="0 0 188 35" fill="none" xmlns="http://www.w3.org/2000/svg">
<path d="M177.673 34.6102C171.657 34.6102 168.649 33.2822 168.649 30.6262C168.649 29.7942 168.873 29.1382 169.321 28.6582C169.769 28.1782 170.361 27.9382 171.097 27.9382C171.417 27.9382 171.721 27.9862 172.009 28.0822C172.329 28.1462 172.937 28.3222 173.833 28.6102C174.217 28.7382 174.729 28.8662 175.369 28.9942C176.009 29.1222 176.633 29.1862 177.241 29.1862C178.393 29.1862 179.209 29.0422 179.689 28.7542C180.169 28.4662 180.409 27.9862 180.409 27.3142C180.409 26.7702 180.281 26.3542 180.025 26.0662C179.769 25.7462 179.225 25.4422 178.393 25.1542C177.561 24.8662 176.265 24.4662 174.505 23.9542C172.905 23.5062 171.609 22.7062 170.617 21.5542C169.657 20.3702 169.177 18.9142 169.177 17.1862C169.177 14.7542 170.057 12.8982 171.817 11.6182C173.577 10.3382 175.993 9.69824 179.065 9.69824C181.369 9.69824 183.177 10.0182 184.489 10.6582C185.801 11.2982 186.457 12.2262 186.457 13.4422C186.457 14.2102 186.233 14.8502 185.785 15.3622C185.337 15.8742 184.729 16.1302 183.961 16.1302C183.641 16.1302 183.257 16.0822 182.809 15.9862C182.393 15.8902 181.881 15.7622 181.273 15.6022C180.825 15.4422 180.345 15.3142 179.833 15.2182C179.353 15.1222 178.841 15.0742 178.297 15.0742C176.761 15.0742 175.993 15.6182 175.993 16.7062C175.993 17.3462 176.297 17.8902 176.905 18.3382C177.513 18.7542 178.681 19.2182 180.409 19.7302C182.777 20.4342 184.521 21.3782 185.641 22.5622C186.761 23.7142 187.321 25.2502 187.321 27.1702C187.321 29.4102 186.457 31.2182 184.729 32.5942C183.033 33.9382 180.681 34.6102 177.673 34.6102Z" fill="white"/>
<path d="M156.657 34.6108C153.457 34.6108 150.945 34.0828 149.121 33.0268C147.329 31.9708 146.049 30.5148 145.281 28.6588C144.545 26.8028 144.177 24.6748 144.177 22.2748C144.177 17.8588 145.153 14.6908 147.105 12.7708C149.057 10.8188 151.681 9.84277 154.977 9.84277C156.961 9.84277 158.721 10.1788 160.257 10.8508C161.793 11.5228 162.993 12.4828 163.857 13.7308C164.721 14.9468 165.153 16.4348 165.153 18.1948C165.153 23.3148 161.505 25.8748 154.209 25.8748H151.425C151.681 26.8668 152.097 27.6508 152.673 28.2268C153.281 28.7708 154.337 29.0428 155.841 29.0428C156.673 29.0428 157.345 28.9948 157.857 28.8988C158.369 28.8028 158.849 28.7068 159.297 28.6108C159.777 28.5148 160.321 28.4668 160.929 28.4668C161.793 28.4668 162.481 28.6268 162.993 28.9468C163.505 29.2348 163.761 29.8428 163.761 30.7708C163.761 32.0828 163.185 33.0588 162.033 33.6988C160.913 34.3068 159.121 34.6108 156.657 34.6108ZM151.089 22.3228C151.345 21.9708 151.633 21.7468 151.953 21.6508C152.273 21.5228 152.769 21.4588 153.441 21.4588C155.329 21.4588 156.625 21.2828 157.329 20.9308C158.065 20.5468 158.433 19.8748 158.433 18.9148C158.433 17.6988 158.097 16.7708 157.425 16.1308C156.753 15.4588 155.905 15.1228 154.881 15.1228C153.697 15.1228 152.769 15.6188 152.097 16.6108C151.425 17.6028 151.089 19.5068 151.089 22.3228Z" fill="white"/>
<path d="M121.506 34.6108C119.202 34.6108 118.05 33.5228 118.05 31.3468V19.8268C118.05 16.7548 119.026 14.3228 120.978 12.5308C122.962 10.7388 125.57 9.84277 128.802 9.84277C132.034 9.84277 134.626 10.7388 136.578 12.5308C138.562 14.3228 139.554 16.7548 139.554 19.8268V31.3468C139.554 33.5228 138.402 34.6108 136.098 34.6108C133.794 34.6108 132.642 33.5228 132.642 31.3468V20.2108C132.642 18.7068 132.306 17.5708 131.634 16.8028C130.962 16.0028 130.018 15.6028 128.802 15.6028C127.586 15.6028 126.642 16.0028 125.97 16.8028C125.298 17.5708 124.962 18.7068 124.962 20.2108V31.3468C124.962 33.5228 123.81 34.6108 121.506 34.6108Z" fill="white"/>
<path d="M102.502 34.6102C100.39 34.6102 98.534 34.1782 96.934 33.3142C95.334 32.4502 94.086 31.2342 93.19 29.6662C92.326 28.0982 91.894 26.2742 91.894 24.1942V12.9622C91.894 10.7862 93.046 9.69824 95.35 9.69824C97.654 9.69824 98.806 10.7862 98.806 12.9622V24.0982C98.806 25.6022 99.126 26.7702 99.766 27.6022C100.406 28.4342 101.318 28.8502 102.502 28.8502C103.686 28.8502 104.598 28.4342 105.238 27.6022C105.878 26.7702 106.198 25.6022 106.198 24.0982V12.9622C106.198 10.7862 107.35 9.69824 109.654 9.69824C111.958 9.69824 113.11 10.7862 113.11 12.9622V24.1942C113.11 26.2742 112.662 28.0982 111.766 29.6662C110.902 31.2342 109.67 32.4502 108.07 33.3142C106.502 34.1782 104.646 34.6102 102.502 34.6102Z" fill="white"/>
<path d="M81.6847 34.611C80.8847 34.611 80.0687 34.435 79.2367 34.083C78.4367 33.699 78.0367 33.091 78.0367 32.259V9.79496C78.0367 8.77096 78.2927 8.06695 78.8047 7.68295C79.3167 7.29895 79.7327 7.05896 80.0527 6.96296H70.7887C70.0207 6.96296 69.4447 6.62695 69.0607 5.95495C68.7087 5.25095 68.5327 4.53096 68.5327 3.79496C68.5327 2.99496 68.7247 2.27495 69.1087 1.63495C69.4927 0.962954 70.0527 0.626953 70.7887 0.626953H92.2447C92.9807 0.626953 93.5407 0.962954 93.9247 1.63495C94.3087 2.27495 94.5007 2.99496 94.5007 3.79496C94.5007 4.53096 94.3087 5.25095 93.9247 5.95495C93.5727 6.62695 93.0127 6.96296 92.2447 6.96296H84.9487V32.259C84.9487 33.059 84.6127 33.651 83.9407 34.035C83.3007 34.419 82.5487 34.611 81.6847 34.611Z" fill="white"/>
<path d="M65.8525 34.6104C62.8765 34.6104 60.6685 33.9064 59.2285 32.4984C57.8205 31.0904 57.1165 28.9304 57.1165 26.0184V16.0344H55.8685C53.6925 16.0344 52.6045 15.0584 52.6045 13.1064C52.6045 11.1864 53.6925 10.2264 55.8685 10.2264H57.1165V5.04238C57.1165 3.98638 57.4365 3.12238 58.0765 2.45038C58.7485 1.77838 59.6125 1.44238 60.6685 1.44238C61.6925 1.44238 62.5085 1.76238 63.1165 2.40238C63.7245 3.01038 64.0285 3.85838 64.0285 4.94638V7.29838C64.0285 8.48238 63.8365 9.45838 63.4525 10.2264H68.0125C70.1885 10.2264 71.2765 11.1864 71.2765 13.1064C71.2765 15.0584 70.1885 16.0344 68.0125 16.0344H64.0285V26.1624C64.0285 27.1224 64.1405 27.8104 64.3645 28.2264C64.5885 28.6104 64.9565 28.8024 65.4685 28.8024C66.1405 28.8024 66.6365 28.7544 66.9565 28.6584C67.3085 28.5304 67.7405 28.4664 68.2525 28.4664C69.1165 28.4664 69.8045 28.6264 70.3165 28.9464C70.8285 29.2344 71.0845 29.8424 71.0845 30.7704C71.0845 32.0824 70.6685 33.0584 69.8365 33.6984C69.0045 34.3064 67.6765 34.6104 65.8525 34.6104Z" fill="white"/>
<path d="M42.8447 34.6108C39.6447 34.6108 37.1327 34.0828 35.3087 33.0268C33.5167 31.9708 32.2367 30.5148 31.4687 28.6588C30.7327 26.8028 30.3647 24.6748 30.3647 22.2748C30.3647 17.8588 31.3407 14.6908 33.2927 12.7708C35.2447 10.8188 37.8687 9.84277 41.1647 9.84277C43.1487 9.84277 44.9087 10.1788 46.4447 10.8508C47.9807 11.5228 49.1807 12.4828 50.0447 13.7308C50.9087 14.9468 51.3407 16.4348 51.3407 18.1948C51.3407 23.3148 47.6927 25.8748 40.3967 25.8748H37.6127C37.8687 26.8668 38.2847 27.6508 38.8607 28.2268C39.4687 28.7708 40.5247 29.0428 42.0287 29.0428C42.8607 29.0428 43.5327 28.9948 44.0447 28.8988C44.5567 28.8028 45.0367 28.7068 45.4847 28.6108C45.9647 28.5148 46.5087 28.4668 47.1167 28.4668C47.9807 28.4668 48.6687 28.6268 49.1807 28.9468C49.6927 29.2348 49.9487 29.8428 49.9487 30.7708C49.9487 32.0828 49.3727 33.0588 48.2207 33.6988C47.1007 34.3068 45.3087 34.6108 42.8447 34.6108ZM37.2767 22.3228C37.5327 21.9708 37.8207 21.7468 38.1407 21.6508C38.4607 21.5228 38.9567 21.4588 39.6287 21.4588C41.5167 21.4588 42.8127 21.2828 43.5167 20.9308C44.2527 20.5468 44.6207 19.8748 44.6207 18.9148C44.6207 17.6988 44.2847 16.7708 43.6127 16.1308C42.9407 15.4588 42.0927 15.1228 41.0687 15.1228C39.8847 15.1228 38.9567 15.6188 38.2847 16.6108C37.6127 17.6028 37.2767 19.5068 37.2767 22.3228Z" fill="white"/>
<path d="M7.87489 31.3946C7.87489 33.5386 6.75489 34.6106 4.51489 34.6106C3.42689 34.6106 2.56289 34.3386 1.92289 33.7946C1.28289 33.2506 0.962891 32.4506 0.962891 31.3946V12.5306C0.962891 9.52263 1.36289 7.12263 2.16289 5.33063C2.96289 3.50663 4.27489 2.17863 6.09889 1.34663C7.92289 0.514632 10.3549 0.0986328 13.3949 0.0986328C17.4269 0.0986328 20.4669 1.04263 22.5149 2.93063C24.5949 4.78663 25.6349 7.98663 25.6349 12.5306V31.3946C25.6349 33.5386 24.5149 34.6106 22.2749 34.6106C21.1869 34.6106 20.3229 34.3386 19.6829 33.7946C19.0429 33.2506 18.7229 32.4506 18.7229 31.3946V12.5306C18.7229 10.1626 18.3069 8.48263 17.4749 7.49063C16.6749 6.46663 15.3149 5.95463 13.3949 5.95463C11.8909 5.95463 10.7389 6.17863 9.93889 6.62663C9.13889 7.07463 8.59489 7.77863 8.30689 8.73863C8.01889 9.69863 7.87489 10.9626 7.87489 12.5306V31.3946Z" fill="white"/>
</svg>
